<svg width="276" height="27" viewBox="0 0 276 27" fill="none" xmlns="http://www.w3.org/2000/svg">
<path d="M14.5605 21L13.0566 16.2148H6.125L4.62109 21H0.382812L7.23242 1.27148H12.0859L18.9492 21H14.5605ZM9.54297 5.04492L7.01367 13.125H12.168L9.63867 5.04492H9.54297ZM27.7654 21.2324C25.9334 21.2324 24.4796 20.5534 23.4041 19.1953C22.3285 17.8372 21.7908 15.987 21.7908 13.6445C21.7908 11.3203 22.3285 9.48372 23.4041 8.13477C24.4887 6.78581 25.9516 6.11133 27.7927 6.11133C28.8318 6.11133 29.7433 6.36198 30.5271 6.86328C31.3201 7.36458 31.8989 8.02995 32.2634 8.85938H32.3455V1.27148H36.3377V21H32.4002V18.4844H32.3318C31.9672 19.3138 31.3793 19.9792 30.5681 20.4805C29.7569 20.9818 28.8227 21.2324 27.7654 21.2324ZM29.1189 9.31055C28.1163 9.31055 27.3233 9.70247 26.74 10.4863C26.1658 11.2702 25.8787 12.332 25.8787 13.6719C25.8787 15.0208 26.1658 16.0827 26.74 16.8574C27.3233 17.6322 28.1163 18.0195 29.1189 18.0195C30.1124 18.0195 30.9008 17.6322 31.4841 16.8574C32.0766 16.0736 32.3728 15.0117 32.3728 13.6719C32.3728 12.3411 32.0766 11.2839 31.4841 10.5C30.9008 9.70703 30.1124 9.31055 29.1189 9.31055ZM47.8198 8.98242C46.954 8.98242 46.2293 9.27865 45.646 9.87109C45.0718 10.4635 44.7482 11.2201 44.6753 12.1406H50.896C50.8504 11.2018 50.5451 10.4408 49.98 9.85742C49.424 9.27409 48.704 8.98242 47.8198 8.98242ZM50.9507 16.5156H54.6148C54.396 17.9557 53.676 19.1178 52.4546 20.002C51.2424 20.877 49.7339 21.3145 47.9292 21.3145C45.6779 21.3145 43.9097 20.64 42.6245 19.291C41.3485 17.9421 40.7105 16.0918 40.7105 13.7402C40.7105 11.3978 41.3485 9.5293 42.6245 8.13477C43.9006 6.73112 45.6187 6.0293 47.7788 6.0293C49.9025 6.0293 51.5933 6.69466 52.8511 8.02539C54.1089 9.35612 54.7378 11.138 54.7378 13.3711V14.5879H44.6343V14.834C44.6343 15.8822 44.9396 16.7344 45.5503 17.3906C46.1701 18.0378 46.9859 18.3613 47.9976 18.3613C48.7267 18.3613 49.3557 18.1973 49.8843 17.8691C50.4129 17.5319 50.7684 17.0807 50.9507 16.5156ZM79.5227 6.34375L75.6399 21H71.388L68.7356 10.6367H68.6536L66.0149 21H61.8177L57.9212 6.34375H61.9407L64.1555 17.2129H64.2376L66.8352 6.34375H70.6634L73.2747 17.2129H73.3567L75.5852 6.34375H79.5227ZM88.7627 18.3477C89.6468 18.3477 90.3942 18.0924 91.0049 17.582C91.6247 17.0625 91.9346 16.4108 91.9346 15.627V14.5605L88.8448 14.752C88.0974 14.8066 87.5186 14.9935 87.1084 15.3125C86.7074 15.6315 86.5069 16.0508 86.5069 16.5703C86.5069 17.1172 86.712 17.5501 87.1221 17.8691C87.5323 18.1882 88.0791 18.3477 88.7627 18.3477ZM87.4502 21.2324C86.0375 21.2324 84.8662 20.8177 83.9366 19.9883C83.0069 19.1589 82.542 18.0924 82.542 16.7891C82.542 15.4583 83.0342 14.4147 84.0186 13.6582C85.003 12.9017 86.4112 12.4688 88.2432 12.3594L91.9346 12.1406V11.1699C91.9346 10.4954 91.7113 9.9668 91.2647 9.58398C90.8272 9.20117 90.2302 9.00977 89.4737 9.00977C88.7445 9.00977 88.1475 9.17383 87.6827 9.50195C87.2269 9.83008 86.9489 10.2721 86.8487 10.8281H83.1983C83.2712 9.38802 83.8864 8.23047 85.044 7.35547C86.2015 6.47135 87.7373 6.0293 89.6514 6.0293C91.529 6.0293 93.0329 6.47591 94.1631 7.36914C95.2933 8.26237 95.8584 9.44727 95.8584 10.9238V21H92.003V18.7578H91.9209C91.5199 19.5234 90.9092 20.1296 90.0889 20.5762C89.2686 21.0137 88.389 21.2324 87.4502 21.2324ZM100.778 21V1.27148H104.77V21H100.778ZM116.28 8.98242C115.414 8.98242 114.689 9.27865 114.106 9.87109C113.532 10.4635 113.208 11.2201 113.135 12.1406H119.356C119.31 11.2018 119.005 10.4408 118.44 9.85742C117.884 9.27409 117.164 8.98242 116.28 8.98242ZM119.411 16.5156H123.075C122.856 17.9557 122.136 19.1178 120.915 20.002C119.702 20.877 118.194 21.3145 116.389 21.3145C114.138 21.3145 112.37 20.64 111.085 19.291C109.808 17.9421 109.17 16.0918 109.17 13.7402C109.17 11.3978 109.808 9.5293 111.085 8.13477C112.361 6.73112 114.079 6.0293 116.239 6.0293C118.363 6.0293 120.053 6.69466 121.311 8.02539C122.569 9.35612 123.198 11.138 123.198 13.3711V14.5879H113.094V14.834C113.094 15.8822 113.4 16.7344 114.01 17.3906C114.63 18.0378 115.446 18.3613 116.458 18.3613C117.187 18.3613 117.816 18.1973 118.344 17.8691C118.873 17.5319 119.228 17.0807 119.411 16.5156ZM148.555 21L147.051 16.2148H140.119L138.615 21H134.377L141.227 1.27148H146.08L152.943 21H148.555ZM143.537 5.04492L141.008 13.125H146.162L143.633 5.04492H143.537ZM157.426 26.4277C156.551 26.4277 156.049 26.4141 155.922 26.3867V23.3105C156.004 23.3288 156.336 23.3379 156.92 23.3379C157.658 23.3379 158.219 23.2103 158.601 22.9551C158.984 22.709 159.244 22.2943 159.381 21.7109C159.381 21.7018 159.403 21.5879 159.449 21.3691C159.495 21.1504 159.513 21.0319 159.504 21.0137L154.404 6.34375H158.793L161.91 17.8008H161.978L165.096 6.34375H169.306L164.262 21.3281C163.633 23.2057 162.803 24.5228 161.773 25.2793C160.752 26.0449 159.303 26.4277 157.426 26.4277ZM184.617 19.291C183.313 20.64 181.545 21.3145 179.312 21.3145C177.079 21.3145 175.311 20.6354 174.007 19.2773C172.704 17.9193 172.052 16.0462 172.052 13.6582C172.052 11.2975 172.709 9.43815 174.021 8.08008C175.343 6.71289 177.106 6.0293 179.312 6.0293C181.527 6.0293 183.291 6.71289 184.603 8.08008C185.916 9.43815 186.572 11.2975 186.572 13.6582C186.572 16.0553 185.92 17.9329 184.617 19.291ZM179.312 18.2656C180.296 18.2656 181.076 17.8646 181.65 17.0625C182.224 16.2604 182.511 15.1302 182.511 13.6719C182.511 12.2318 182.224 11.1061 181.65 10.2949C181.076 9.48372 180.296 9.07812 179.312 9.07812C178.328 9.07812 177.544 9.48372 176.961 10.2949C176.386 11.1061 176.099 12.2318 176.099 13.6719C176.099 15.1302 176.386 16.2604 176.961 17.0625C177.535 17.8646 178.319 18.2656 179.312 18.2656ZM190.876 21V6.34375H194.732V8.99609H194.814C195.124 8.10286 195.652 7.39193 196.4 6.86328C197.147 6.33464 198.013 6.07031 198.997 6.07031C200.055 6.07031 200.939 6.33464 201.65 6.86328C202.361 7.38281 202.839 8.12109 203.085 9.07812H203.167C203.495 8.15755 204.065 7.42839 204.876 6.89062C205.697 6.34375 206.645 6.07031 207.72 6.07031C209.16 6.07031 210.318 6.52148 211.193 7.42383C212.077 8.32617 212.519 9.51562 212.519 10.9922V21H208.527V11.9902C208.527 11.1426 208.322 10.4954 207.911 10.0488C207.501 9.5931 206.909 9.36523 206.134 9.36523C205.378 9.36523 204.767 9.61589 204.302 10.1172C203.846 10.6185 203.619 11.2793 203.619 12.0996V21H199.777V11.8672C199.777 11.0833 199.567 10.4727 199.148 10.0352C198.729 9.58854 198.15 9.36523 197.411 9.36523C196.655 9.36523 196.04 9.625 195.566 10.1445C195.101 10.6641 194.869 11.334 194.869 12.1543V21H190.876ZM217.357 21V6.34375H221.349V21H217.357ZM220.87 4.12891C220.46 4.52995 219.954 4.73047 219.353 4.73047C218.751 4.73047 218.245 4.52995 217.835 4.12891C217.425 3.72786 217.22 3.24023 217.22 2.66602C217.22 2.08268 217.425 1.59505 217.835 1.20312C218.245 0.802083 218.751 0.601562 219.353 0.601562C219.954 0.601562 220.46 0.802083 220.87 1.20312C221.28 1.59505 221.485 2.08268 221.485 2.66602C221.485 3.24023 221.28 3.72786 220.87 4.12891ZM230.397 12.2227L235.374 6.34375H239.899L234.307 12.6328L240.173 21H235.579L231.382 15.0391L230.343 16.1602V21H226.35V1.27148H230.343V12.2227H230.397ZM257.096 6.34375V21H253.241V18.3613H253.159C252.393 20.3027 250.93 21.2734 248.77 21.2734C247.166 21.2734 245.885 20.7858 244.928 19.8105C243.971 18.8262 243.493 17.4863 243.493 15.791V6.34375H247.485V14.957C247.485 15.9323 247.717 16.6751 248.182 17.1855C248.656 17.696 249.335 17.9512 250.219 17.9512C251.103 17.9512 251.805 17.6595 252.325 17.0762C252.844 16.4928 253.104 15.7135 253.104 14.7383V6.34375H257.096ZM261.934 21V6.34375H265.789V8.95508H265.871C266.273 8.02539 266.856 7.31445 267.621 6.82227C268.396 6.32096 269.34 6.07031 270.452 6.07031C272.074 6.07031 273.327 6.55339 274.211 7.51953C275.095 8.48568 275.538 9.83008 275.538 11.5527V21H271.545V12.3867C271.545 11.4206 271.317 10.6777 270.862 10.1582C270.406 9.63867 269.736 9.37891 268.852 9.37891C267.968 9.37891 267.257 9.67513 266.719 10.2676C266.191 10.86 265.926 11.6348 265.926 12.5918V21H261.934Z" fill="#36413D"/>
</svg>
