<svg width="1130" height="40" viewBox="0 0 1130 40" fill="none" xmlns="http://www.w3.org/2000/svg">
<path d="M1124.61 0H1095.39C1092.41 0 1090 2.41318 1090 5.39008V34.6097C1090 37.5866 1092.41 39.9998 1095.39 39.9998H1109.8L1109.83 25.706H1106.11C1105.63 25.706 1105.24 25.3158 1105.24 24.8332L1105.22 20.2257C1105.22 19.7405 1105.61 19.3462 1106.09 19.3462H1109.8V14.8942C1109.8 9.72768 1112.96 6.91449 1117.57 6.91449H1121.35C1121.83 6.91449 1122.22 7.30677 1122.22 7.79074V11.6758C1122.22 12.1596 1121.83 12.5517 1121.35 12.552L1119.03 12.5531C1116.52 12.5531 1116.04 13.7441 1116.04 15.492V19.3463H1121.54C1122.07 19.3463 1122.47 19.8045 1122.41 20.3256L1121.87 24.9331C1121.81 25.374 1121.44 25.7062 1121 25.7062H1116.06L1116.04 40H1124.61C1127.59 40 1130 37.5868 1130 34.61V5.39008C1130 2.41318 1127.59 0 1124.61 0Z" fill="white"/>
<path d="M919.898 11.7601C919.805 9.63478 919.461 8.17362 918.968 6.9075C918.46 5.56354 917.679 4.3603 916.655 3.36004C915.654 2.34421 914.443 1.55487 913.114 1.0549C911.841 0.562551 910.387 0.218854 908.261 0.125147C906.119 0.0235032 905.44 0 900.008 0C894.576 0 893.896 0.0235032 891.762 0.117211C889.637 0.210918 888.175 0.55492 886.909 1.04696C885.565 1.55487 884.361 2.33628 883.361 3.36004C882.345 4.3603 881.555 5.57148 881.055 6.89987C880.563 8.17362 880.219 9.62685 880.125 11.7522C880.024 13.8934 880 14.5732 880 20.004C880 25.4347 880.024 26.1145 880.117 28.2478C880.211 30.3732 880.555 31.8343 881.047 33.1004C881.555 34.4444 882.345 35.6476 883.361 36.6479C884.361 37.6637 885.573 38.4531 886.901 38.953C888.175 39.4454 889.629 39.7891 891.755 39.8828C893.888 39.9768 894.568 40 900 40C905.432 40 906.112 39.9768 908.246 39.8828C910.371 39.7891 911.833 39.4454 913.099 38.953C915.788 37.9137 917.913 35.7883 918.953 33.1004C919.445 31.8267 919.789 30.3732 919.883 28.2478C919.976 26.1145 920 25.4347 920 20.004C920 14.5732 919.992 13.8934 919.898 11.7601ZM916.296 28.0915C916.209 30.045 915.881 31.0999 915.608 31.8032C914.935 33.5458 913.552 34.9288 911.809 35.6009C911.106 35.8744 910.043 36.2026 908.097 36.2883C905.987 36.3823 905.354 36.4055 900.016 36.4055C894.678 36.4055 894.037 36.3823 891.934 36.2883C889.98 36.2026 888.925 35.8744 888.222 35.6009C887.355 35.2804 886.565 34.7725 885.924 34.1083C885.26 33.4597 884.752 32.6783 884.431 31.8111C884.158 31.1079 883.83 30.045 883.744 28.0994C883.65 25.9897 883.627 25.3566 883.627 20.0195C883.627 14.6825 883.65 14.0418 883.744 11.9399C883.83 9.98642 884.158 8.93152 884.431 8.22826C884.752 7.36077 885.26 6.57174 885.932 5.93074C886.581 5.26655 887.362 4.75863 888.23 4.43844C888.933 4.16495 889.996 3.83682 891.942 3.75074C894.052 3.65704 894.686 3.63353 900.023 3.63353C905.369 3.63353 906.002 3.65704 908.105 3.75074C910.059 3.83682 911.114 4.16495 911.817 4.43844C912.685 4.75863 913.474 5.26655 914.115 5.93074C914.779 6.57937 915.287 7.36077 915.608 8.22826C915.881 8.93152 916.209 9.99405 916.296 11.9399C916.389 14.0497 916.413 14.6825 916.413 20.0195C916.413 25.3566 916.389 25.9817 916.296 28.0915Z" fill="white"/>
<path d="M900.008 9.729C894.334 9.729 889.73 14.3314 889.73 20.0045C889.73 25.6776 894.334 30.28 900.008 30.28C905.682 30.28 910.285 25.6776 910.285 20.0045C910.285 14.3314 905.682 9.729 900.008 9.729ZM900.008 26.6699C896.327 26.6699 893.341 23.685 893.341 20.0045C893.341 16.3239 896.327 13.339 900.008 13.339C903.689 13.339 906.675 16.3239 906.675 20.0045C906.675 23.685 903.689 26.6699 900.008 26.6699V26.6699Z" fill="white"/>
<path d="M913.09 9.32268C913.09 10.6474 912.016 11.7215 910.691 11.7215C909.367 11.7215 908.292 10.6474 908.292 9.32268C908.292 7.99765 909.367 6.92383 910.691 6.92383C912.016 6.92383 913.09 7.99765 913.09 9.32268V9.32268Z" fill="white"/>
<path d="M674.851 0C671.918 0 670 2.01501 670 4.66345C670 7.25341 671.861 9.32588 674.738 9.32588H674.794C677.784 9.32588 679.646 7.25341 679.646 4.66345C679.59 2.01501 677.784 0 674.851 0V0Z" fill="white"/>
<path d="M670.507 13.0107H679.082V39.9999H670.507V13.0107Z" fill="white"/>
<path d="M700.129 12.377C695.503 12.377 692.401 16.9244 692.401 16.9244V13.0104H683.826V39.9996H692.401V24.9278C692.401 24.1209 692.457 23.3153 692.683 22.7383C693.303 21.1271 694.714 19.458 697.083 19.458C700.185 19.458 701.426 21.933 701.426 25.5612V39.9996H710V24.5245C710 16.2346 705.77 12.377 700.129 12.377V12.377Z" fill="white"/>
<path d="M464.684 18.08C465.93 17.412 466.871 16.668 467.516 15.864C468.664 14.416 469.23 12.496 469.23 10.116C469.23 7.8 468.664 5.82 467.531 4.16C465.641 1.456 462.442 0.072 457.919 0H440V39.012H456.708C458.59 39.012 460.334 38.84 461.947 38.488C463.559 38.132 464.955 37.48 466.136 36.528C467.186 35.7 468.064 34.672 468.761 33.46C469.864 31.628 470.415 29.552 470.415 27.24C470.415 25 469.931 23.092 468.971 21.524C468 19.956 466.575 18.808 464.684 18.08ZM447.392 6.776H455.463C457.236 6.776 458.699 6.98 459.847 7.384C461.174 7.972 461.838 9.168 461.838 10.992C461.838 12.628 461.332 13.772 460.33 14.416C459.322 15.06 458.013 15.384 456.408 15.384H447.392V6.776ZM460.154 31.556C459.262 32.016 458.005 32.244 456.396 32.244H447.392V21.84H456.52C458.11 21.852 459.348 22.076 460.233 22.496C461.808 23.256 462.592 24.648 462.592 26.684C462.592 29.084 461.782 30.7 460.154 31.556Z" fill="white"/>
<path d="M494.233 1.82031H478.343V6.67631H494.233V1.82031Z" fill="white"/>
<path d="M499.754 20.9844C499.424 18.7244 498.696 16.7364 497.564 15.0204C496.322 13.0764 494.747 11.6524 492.831 10.7524C490.922 9.84842 488.773 9.39642 486.38 9.40042C482.364 9.40042 479.101 10.7404 476.577 13.4004C474.06 16.0684 472.8 19.9044 472.8 24.9044C472.8 30.2364 474.192 34.0884 476.989 36.4524C479.776 38.8204 482.994 40.0004 486.646 40.0004C491.068 40.0004 494.507 38.5964 496.964 35.7964C498.535 34.0284 499.424 32.2884 499.619 30.5804H492.298C491.874 31.4244 491.383 32.0844 490.821 32.5644C489.8 33.4444 488.473 33.8844 486.845 33.8844C485.296 33.8844 483.984 33.5204 482.889 32.7964C481.081 31.6364 480.136 29.6044 480.016 26.7124H499.994C500.024 24.2204 499.949 22.3044 499.754 20.9844ZM480.196 21.7324C480.458 19.8564 481.096 18.3684 482.109 17.2684C483.121 16.1724 484.554 15.6204 486.388 15.6164C488.079 15.6164 489.493 16.1324 490.644 17.1684C491.781 18.2124 492.422 19.7284 492.553 21.7324H480.196Z" fill="white"/>
<path d="M270 4.73538C268.141 5.53846 266.159 6.07077 264.094 6.32923C266.219 5.08 267.841 3.11692 268.603 0.750769C266.622 1.91385 264.434 2.73538 262.103 3.19385C260.222 1.22154 257.541 0 254.616 0C248.941 0 244.372 4.53538 244.372 10.0954C244.372 10.8954 244.441 11.6646 244.609 12.3969C236.088 11.9877 228.547 7.96615 223.481 1.84C222.597 3.35077 222.078 5.08 222.078 6.94154C222.078 10.4369 223.906 13.5354 226.631 15.3292C224.984 15.2985 223.369 14.8277 222 14.0862C222 14.1169 222 14.1569 222 14.1969C222 19.1015 225.553 23.1754 230.212 24.1138C229.378 24.3385 228.469 24.4462 227.525 24.4462C226.869 24.4462 226.206 24.4092 225.584 24.2738C226.912 28.2708 230.681 31.2092 235.163 31.3046C231.675 33.9908 227.247 35.6092 222.453 35.6092C221.613 35.6092 220.806 35.5723 220 35.4708C224.541 38.3538 229.922 40 235.725 40C254.587 40 264.9 24.6154 264.9 11.28C264.9 10.8338 264.884 10.4031 264.862 9.97539C266.897 8.55385 268.606 6.77846 270 4.73538Z" fill="white"/>
<path d="M45 0H5C2.25 0 0 2.25 0 5V35C0 37.75 2.25 40 5 40H45C47.75 40 50 37.75 50 35V5C50 2.25 47.75 0 45 0ZM45 35H40V13L25 22.5L10 13V35H5V5H8L25 15.5L42 5H45V35Z" fill="white"/>
</svg>
