<svg width="57" height="6" viewBox="0 0 57 6" fill="none" xmlns="http://www.w3.org/2000/svg">
<path d="M52.4486 0.714365C51.2022 0.55562 49.9559 0.438894 48.7095 0.303494C48.2983 0.256804 47.8849 0.256793 47.4737 0.233448L44.7956 0.0840664C44.297 0.0560526 43.8006 0.0186758 43.3042 0C43.1614 0 43.0165 0 42.8781 0H41.9065H37.4877C37.1361 0 36.7846 2.73578e-05 36.4352 0.0280411L33.8316 0.102732C32.8515 0.130746 31.8714 0.144758 30.8935 0.196117L26.1402 0.452904C25.2219 0.504263 24.3036 0.532289 23.3874 0.611661L18.6469 1.0225C17.784 1.09721 16.919 1.15791 16.0561 1.2653L11.1557 1.86294C10.2843 1.97033 9.40867 2.0497 8.53726 2.21311L3.65822 3.12354L2.59292 3.31965C1.88983 3.45038 1.191 3.6558 0.490034 3.82855L0.357939 3.86591C0.277269 3.91839 0.203973 4.01475 0.14488 4.14604C0.0524338 4.35138 0.000417196 4.62798 0 4.91643C0.000518372 5.20346 0.0525618 5.47853 0.14488 5.68215C0.190104 5.78595 0.244753 5.86784 0.305303 5.92252C0.365853 5.9772 0.43096 6.00347 0.496427 5.99963C1.34866 5.7942 2.18598 5.57008 3.03182 5.41134L5.38825 4.97713L7.95774 4.51023C8.30289 4.44954 8.65018 4.36548 8.99534 4.31879L13.003 3.85189L15.4915 3.51574C15.8345 3.47372 16.1797 3.42236 16.5227 3.39434L20.4941 3.05819L22.9017 2.85743C23.1723 2.85743 23.4428 2.80607 23.7113 2.79206L28.0002 2.57728L30.3949 2.45588C30.6804 2.45588 30.9638 2.42322 31.2472 2.41855L35.6703 2.31582C36.5907 2.31582 37.509 2.27846 38.4294 2.28313L43.1273 2.30647C43.4363 2.30647 43.7431 2.3345 44.052 2.35785L46.6449 2.52125L48.5902 2.64732C49.0504 2.67534 49.5084 2.75469 49.9686 2.80605C51.3216 2.96946 52.6745 3.13289 54.0168 3.31965C54.3619 3.36634 54.7049 3.42235 55.048 3.47838C55.391 3.53441 55.7851 3.59044 56.1516 3.68382L56.3221 3.75386C56.4616 3.83093 56.6093 3.78922 56.7354 3.63714C56.8556 3.47943 56.944 3.22737 56.9825 2.93212C57.0181 2.63138 56.9989 2.31208 56.9289 2.0419C56.8589 1.77172 56.7436 1.57189 56.6075 1.48475C56.3592 1.35113 56.1062 1.26367 55.8512 1.22329L55.3292 1.10657C54.9947 1.03187 54.6581 0.994493 54.3236 0.938466C53.7078 0.849756 53.0772 0.789068 52.4486 0.714365Z" fill="#FFE551"/>
</svg>
